<svg id="Layer_1" data-name="Layer 1" xmlns="http://www.w3.org/2000/svg" xmlns:xlink="http://www.w3.org/1999/xlink" viewBox="0 0 13.85 32.65"><defs><style>.cls-1{fill:url(#linear-gradient);}.cls-2{fill:url(#linear-gradient-2);}.cls-3{fill:url(#linear-gradient-3);}.cls-4{fill:url(#linear-gradient-4);}.cls-5{fill:url(#linear-gradient-5);}.cls-6{fill:url(#linear-gradient-6);}.cls-7{fill:url(#linear-gradient-7);}.cls-8{fill:url(#linear-gradient-8);}.cls-9{fill:url(#linear-gradient-9);}.cls-10{fill:url(#linear-gradient-10);}.cls-11{fill:url(#linear-gradient-11);}.cls-12{fill:url(#linear-gradient-12);}.cls-13{fill:url(#linear-gradient-13);}.cls-14{fill:url(#linear-gradient-14);}.cls-15{fill:url(#linear-gradient-15);}.cls-16{fill:url(#linear-gradient-16);}.cls-17{fill:url(#linear-gradient-17);}.cls-18{fill:url(#linear-gradient-18);}.cls-19{fill:url(#linear-gradient-19);}.cls-20{fill:url(#linear-gradient-20);}.cls-21{fill:url(#linear-gradient-21);}.cls-22{fill:url(#linear-gradient-22);}.cls-23{fill:url(#linear-gradient-23);}</style><linearGradient id="linear-gradient" x1="3975.1" y1="46.07" x2="3974.77" y2="51.41" gradientTransform="matrix(-1, 0, 0, 1, 4003.42, 0)" gradientUnits="userSpaceOnUse"><stop offset="0" stop-color="#f6db80"/><stop offset="1" stop-color="#de932e"/></linearGradient><linearGradient id="linear-gradient-2" x1="3974.91" y1="61.23" x2="3974.91" y2="48.13" gradientTransform="matrix(-1, 0, 0, 1, 4003.42, 0)" gradientUnits="userSpaceOnUse"><stop offset="0" stop-color="#f6db80"/><stop offset="0.76" stop-color="#f6db80"/><stop offset="0.99" stop-color="#b5690b"/></linearGradient><linearGradient id="linear-gradient-3" x1="3974.91" y1="42.81" x2="3974.91" y2="47.76" gradientTransform="matrix(-1, 0, 0, 1, 3981.84, -37.4)" gradientUnits="userSpaceOnUse"><stop offset="0" stop-color="#f6db80"/><stop offset="0.99" stop-color="#b5690b"/></linearGradient><linearGradient id="linear-gradient-4" x1="3974.96" y1="42.53" x2="3974.74" y2="56.05" gradientTransform="matrix(-1, 0, 0, 1, 3981.84, -37.4)" xlink:href="#linear-gradient"/><linearGradient id="linear-gradient-5" x1="3974.83" y1="41.49" x2="3974.91" y2="46.63" gradientTransform="matrix(1, 0, 0, -1, -3946.4, 93.37)" xlink:href="#linear-gradient-2"/><linearGradient id="linear-gradient-6" x1="3969.24" y1="62.14" x2="3969.3" y2="47.19" gradientTransform="matrix(1, 0, 0, -1, -3935.13, 108.94)" xlink:href="#linear-gradient-3"/><linearGradient id="linear-gradient-7" x1="3971.83" y1="62.15" x2="3971.88" y2="47.2" gradientTransform="matrix(1, 0, 0, -1, -3940.29, 108.94)" xlink:href="#linear-gradient"/><linearGradient id="linear-gradient-8" x1="3977.94" y1="62.17" x2="3977.99" y2="47.22" gradientTransform="matrix(1, 0, 0, -1, -3952.51, 108.94)" xlink:href="#linear-gradient"/><linearGradient id="linear-gradient-9" x1="3980.52" y1="62.18" x2="3980.57" y2="47.23" gradientTransform="matrix(1, 0, 0, -1, -3957.68, 108.94)" xlink:href="#linear-gradient-3"/><linearGradient id="linear-gradient-10" x1="3970" y1="42.7" x2="3974.12" y2="44.51" xlink:href="#linear-gradient-3"/><linearGradient id="linear-gradient-11" x1="3980.79" y1="41.52" x2="3976.83" y2="44.55" gradientTransform="matrix(-1, 0, 0, 1, 3981.84, -37.4)" xlink:href="#linear-gradient"/><linearGradient id="linear-gradient-12" x1="3973.56" y1="43.17" x2="3985.43" y2="48.66" gradientTransform="matrix(-1, 0, 0, 1, 3981.84, -37.4)" xlink:href="#linear-gradient"/><linearGradient id="linear-gradient-13" x1="3972.52" y1="37.29" x2="3974.78" y2="40.15" gradientTransform="matrix(-1, 0, 0, 1, 4003.42, 0)" xlink:href="#linear-gradient-3"/><linearGradient id="linear-gradient-14" x1="3973.65" y1="37.36" x2="3976.02" y2="42.92" xlink:href="#linear-gradient"/><linearGradient id="linear-gradient-15" x1="1690.06" y1="782.15" x2="1710.02" y2="790.21" gradientTransform="matrix(-1, 0, 0, 1, 1728.14, -723.22)" xlink:href="#linear-gradient-3"/><linearGradient id="linear-gradient-16" x1="3974.81" y1="61.75" x2="3975.18" y2="65.69" gradientTransform="matrix(1, 0, 0, -1, -3946.4, 125.6)" xlink:href="#linear-gradient"/><linearGradient id="linear-gradient-17" x1="3976.66" y1="67.54" x2="3978.47" y2="64.96" gradientTransform="matrix(-1, 0, 0, 1, 3981.84, -37.4)" xlink:href="#linear-gradient"/><linearGradient id="linear-gradient-18" x1="3970.67" y1="67.34" x2="3971.82" y2="63.27" xlink:href="#linear-gradient-3"/><linearGradient id="linear-gradient-19" x1="3974.65" y1="67.27" x2="3975.08" y2="61.01" gradientTransform="matrix(-1, 0, 0, 1, 3981.84, -37.4)" xlink:href="#linear-gradient"/><linearGradient id="linear-gradient-20" x1="3975.02" y1="72.34" x2="3974.91" y2="67.23" gradientTransform="matrix(-1, 0, 0, 1, 4003.42, 0)" xlink:href="#linear-gradient-3"/><linearGradient id="linear-gradient-21" x1="3974.35" y1="71.62" x2="3974.97" y2="66.81" xlink:href="#linear-gradient"/><linearGradient id="linear-gradient-22" x1="3974.91" y1="51.42" x2="3974.91" y2="46.67" xlink:href="#linear-gradient"/><linearGradient id="linear-gradient-23" x1="3974.91" y1="52.01" x2="3974.91" y2="46.82" gradientTransform="matrix(-1, 0, 0, 1, 4003.42, 0)" xlink:href="#linear-gradient-3"/></defs><path class="cls-1" d="M31,46.86v4.71a1.29,1.29,0,0,0-1.23-1.34v-.64a1.38,1.38,0,0,0-.53-1.11l-.77-.58-.77.58a1.36,1.36,0,0,0-.53,1.11v.64A1.3,1.3,0,0,0,26,51.57V46.86Z" transform="translate(-21.58 -37.4)"/><path class="cls-2" d="M33.94,62.09H33.4V46.86h.54ZM23.07,46.86V62.09h.54V51.57c0-.74.2-1.34.44-1.34v-.64a2.75,2.75,0,0,1,.2-1.11l.27-.58.28.58A2.77,2.77,0,0,1,25,49.59v.64c.25,0,.44.59.45,1.32V62.09H26V46.86Zm8,0V62.09h.53V51.55c0-.73.21-1.32.45-1.32v-.64a2.77,2.77,0,0,1,.19-1.11l.28-.58.28.58A2.77,2.77,0,0,1,33,49.59v.64c.25,0,.44.6.44,1.34V46.86Z" transform="translate(-21.58 -37.4)"/><rect class="cls-3" y="7.68" width="13.85" height="1.43"/><rect class="cls-4" x="3.16" y="7.68" width="7.54" height="1.43"/><rect class="cls-5" x="22.4" y="46.51" width="12.22" height="0.34" transform="translate(35.43 55.97) rotate(180)"/><rect class="cls-6" x="33.85" y="46.86" width="0.58" height="15.23" transform="translate(46.71 71.54) rotate(180)"/><rect class="cls-7" x="31.27" y="46.86" width="0.58" height="15.23" transform="translate(41.54 71.54) rotate(180)"/><rect class="cls-8" x="25.16" y="46.86" width="0.58" height="15.23" transform="translate(29.32 71.54) rotate(180)"/><rect class="cls-9" x="22.58" y="46.86" width="0.58" height="15.23" transform="translate(24.16 71.54) rotate(180)"/><polygon class="cls-10" points="12.86 7.68 9.17 4.1 8.12 4.1 10.27 7.68 12.86 7.68"/><polygon class="cls-11" points="1 7.68 4.68 4.1 5.73 4.1 3.58 7.68 1 7.68"/><polygon class="cls-12" points="8.12 4.1 5.73 4.1 3.58 7.68 10.27 7.68 8.12 4.1"/><path class="cls-13" d="M27.93,37.4h1.15c1,.81,2.89,2.63,1.67,4.1H26.27C25,40,26.92,38.21,27.93,37.4Z" transform="translate(-21.58 -37.4)"/><path class="cls-14" d="M28.2,37.4h.62c.54.81,1.55,2.63.88,4.1H27.31C26.64,40,27.65,38.21,28.2,37.4Z" transform="translate(-21.58 -37.4)"/><rect class="cls-15" x="21.58" y="62.09" width="13.85" height="1.43" transform="translate(35.43 88.2) rotate(180)"/><rect class="cls-16" x="24.74" y="62.09" width="7.54" height="1.43" transform="translate(35.43 88.2) rotate(180)"/><polygon class="cls-17" points="1 26.11 4.68 29 5.73 29 3.58 26.11 1 26.11"/><polygon class="cls-18" points="12.86 26.11 9.17 29 8.12 29 10.27 26.11 12.86 26.11"/><polygon class="cls-19" points="5.73 29 8.12 29 10.27 26.11 3.58 26.11 5.73 29"/><path class="cls-20" d="M30.75,66.4c1.63,1.58-2.24,3.65-2.24,3.65S24.63,68,26.27,66.4Z" transform="translate(-21.58 -37.4)"/><path class="cls-21" d="M29.7,66.4c.9,1.58-1.19,3.65-1.19,3.65S26.42,68,27.31,66.4Z" transform="translate(-21.58 -37.4)"/><path class="cls-22" d="M25.74,46.86v4.71a1.35,1.35,0,0,1,1.35-1.34v-.64a1.32,1.32,0,0,1,.58-1.11l.84-.58.84.58a1.35,1.35,0,0,1,.58,1.11v.64a1.34,1.34,0,0,1,1.34,1.34V46.86Zm5.18.35a.09.09,0,0,1-.09.09.09.09,0,0,1,0-.18A.09.09,0,0,1,30.92,47.21Zm-.27.73a.56.56,0,0,1,.18-.42.54.54,0,0,1,.19.42.57.57,0,0,1-.19.43A.6.6,0,0,1,30.65,47.94ZM30,48a.58.58,0,0,1,.6-.6.58.58,0,0,1-.6.6Zm-.34-.82a.59.59,0,0,1,.85,0,.57.57,0,0,1-.85,0Zm-3.41,0a.09.09,0,1,1-.09-.09A.09.09,0,0,1,26.27,47.21Zm.64.19a.57.57,0,0,1-.43-.19.6.6,0,0,1,.43-.18.56.56,0,0,1,.42.18A.54.54,0,0,1,26.91,47.4Zm-.52,0a.54.54,0,0,1,.43.17A.55.55,0,0,1,27,48a.6.6,0,0,1-.43-.17A.65.65,0,0,1,26.39,47.43Zm-.39.51a.56.56,0,0,1,.18-.42.56.56,0,0,1,.18.42.6.6,0,0,1-.18.43A.6.6,0,0,1,26,47.94Z" transform="translate(-21.58 -37.4)"/><path class="cls-23" d="M33.85,46.86h-2v4.71c0-.74.22-1.34.49-1.34v-.64a2.58,2.58,0,0,1,.21-1.11l.3-.58.31.58a2.59,2.59,0,0,1,.2,1.11v.64c.27,0,.49.6.49,1.34ZM32,47.21s0,.09,0,.09,0,0,0-.09,0-.09,0-.09S32,47.16,32,47.21Zm0,.73a1.29,1.29,0,0,1-.07.43,1.29,1.29,0,0,1-.07-.43,1.18,1.18,0,0,1,.07-.42A1.18,1.18,0,0,1,32.08,47.94Zm0-.51s.11,0,.15.17a1.14,1.14,0,0,1,.07.43c-.06,0-.12-.05-.16-.17A1.44,1.44,0,0,1,32.09,47.43Zm.34-.22c0,.12-.09.19-.16.19s-.11-.07-.15-.19.09-.18.15-.18S32.39,47.1,32.43,47.21Zm1.15,0c0,.12-.09.19-.15.19s-.11-.07-.15-.19.09-.18.15-.18S33.55,47.1,33.58,47.21Zm0,.22a1.18,1.18,0,0,1-.07.43c0,.12-.1.17-.15.17a1.4,1.4,0,0,1,.06-.43C33.5,47.48,33.56,47.42,33.62,47.43Zm.11-.22s0,.09,0,.09,0,0,0-.09,0-.09,0-.09S33.73,47.16,33.73,47.21Zm0,.73a1.29,1.29,0,0,1-.07.43,1.31,1.31,0,0,1-.06-.43,1.21,1.21,0,0,1,.06-.42A1.18,1.18,0,0,1,33.76,47.94Zm-10.6-1.08v4.71c0-.74.22-1.34.49-1.34v-.64a2.58,2.58,0,0,1,.21-1.11l.3-.58.3.58a2.44,2.44,0,0,1,.21,1.11v.64c.27,0,.49.6.49,1.34V46.86Zm1.87.35s0,.09,0,.09,0,0,0-.09,0-.09,0-.09S25,47.16,25,47.21Zm-.09.73a1.21,1.21,0,0,1,.06-.42,1.18,1.18,0,0,1,.07.42,1.29,1.29,0,0,1-.07.43A1.31,1.31,0,0,1,24.94,47.94Zm-.23.09a1.4,1.4,0,0,1,.06-.43c0-.12.1-.18.15-.17a1,1,0,0,1-.06.43C24.82,48,24.76,48,24.71,48Zm-.13-.82c0-.11.1-.18.16-.18s.11.07.15.18-.09.19-.15.19S24.62,47.33,24.58,47.21Zm-1.23,0s0,.09,0,.09,0,0,0-.09,0-.09,0-.09S23.35,47.16,23.35,47.21Zm.23.19c-.06,0-.11-.07-.15-.19s.09-.18.15-.18.12.07.16.18S23.64,47.4,23.58,47.4Zm-.18,0c.05,0,.11,0,.15.17a1,1,0,0,1,.06.43c-.05,0-.11-.05-.15-.17A1.44,1.44,0,0,1,23.4,47.43Zm-.15.51a1.18,1.18,0,0,1,.07-.42,1.18,1.18,0,0,1,.07.42,1.29,1.29,0,0,1-.07.43A1.29,1.29,0,0,1,23.25,47.94Z" transform="translate(-21.58 -37.4)"/></svg>