<svg id="Layer_1" data-name="Layer 1" xmlns="http://www.w3.org/2000/svg" xmlns:xlink="http://www.w3.org/1999/xlink" viewBox="0 0 20.81 20.81"><defs><style>.cls-1{fill:url(#linear-gradient);}.cls-2{fill:url(#linear-gradient-2);}</style><linearGradient id="linear-gradient" x1="-407.29" y1="45.68" x2="-419.75" y2="64.08" gradientTransform="translate(440.61)" gradientUnits="userSpaceOnUse"><stop offset="0" stop-color="#f6db80"/><stop offset="1" stop-color="#de932e"/></linearGradient><linearGradient id="linear-gradient-2" x1="-406.39" y1="42.61" x2="-418.33" y2="66.3" gradientTransform="translate(440.61)" gradientUnits="userSpaceOnUse"><stop offset="0" stop-color="#f6db80"/><stop offset="0.99" stop-color="#b5690b"/></linearGradient></defs><path class="cls-1" d="M30.32,59.46a8.38,8.38,0,0,1-.95-16.7,9.64,9.64,0,0,0-1.08-.06A10.41,10.41,0,1,0,38.7,53.11,9.77,9.77,0,0,0,38.64,52,8.37,8.37,0,0,1,30.32,59.46Z" transform="translate(-17.89 -42.7)"/><path class="cls-2" d="M29.35,42.76a9.06,9.06,0,1,0,9.29,9.29,8.38,8.38,0,1,1-9.29-9.29Z" transform="translate(-17.89 -42.7)"/></svg>