<svg xmlns="http://www.w3.org/2000/svg" width="14.481" height="14.536" viewBox="0 0 14.481 14.536">
  <path id="Path_424" data-name="Path 424" d="M11.8,1.49H.768c-.722,0-.683.292-.62,1.037L.558,7.76c.07.834.011.632.894.758L9.57,9.551,9.14,10.8H.4c-.118.442-.279,1.163-.4,1.656H1.453l.14-.5H8.578c1.6-.027,1.442.407,1.826-.978L13.159.959h1.322V0h-2.32c-.108.4-.257,1.082-.357,1.49ZM8.13,12.293a1.121,1.121,0,1,0,1.121,1.121A1.122,1.122,0,0,0,8.13,12.293Zm-4.625,0a1.121,1.121,0,1,0,1.121,1.121A1.122,1.122,0,0,0,3.5,12.293Zm7.333-7.2H9.052L9.7,2.385h1.884l-.218.811h-.007l-.522,1.9ZM8.766,2.386,8.118,5.095H6.4l.651-2.706,1.718,0Zm-2.653,0L5.463,5.095H3.817l.648-2.7,1.648,0Zm-2.583,0L2.882,5.1H1.235L1.053,2.924C1,2.319.9,2.4,1.482,2.4l2.048,0ZM1.293,5.783H2.717l-.47,1.959-.116-.015c-.718-.1-.671.062-.727-.616L1.293,5.783Zm1.86,2.083.5-2.083H5.3l-.552,2.3L3.152,7.866Zm2.5.339.583-2.424H7.954L7.319,8.433,5.65,8.206Zm2.574.351.664-2.774h1.761L9.825,8.776l-1.6-.219Z" fill-rule="evenodd"/>
</svg>
